<svg width="128" height="128" viewBox="0 0 128 128" fill="none" xmlns="http://www.w3.org/2000/svg">
<g clip-path="url(#clip0_2_2)">
<rect width="128" height="128" rx="10" fill="white"/>
<path d="M67.0625 63.5V23.9062H66.9062L50.6562 66.4688H48.1875L32.9375 23.9688H32.7812V63.5H38.4062V66H23.7188V63.5H29.9688V23.0938H23.7188V20.5938H38.1875L51.2188 56.75H51.3438L65.2188 20.5938H79.4062V23.0938H73.1562V63.5H79.4062V66H61.4375V63.5H67.0625ZM108.781 57.5312C108.115 60.5521 106.823 62.8646 104.906 64.4688C102.99 66.0729 100.5 66.875 97.4375 66.875C95.3333 66.875 93.4583 66.5104 91.8125 65.7812C90.1667 65.0312 88.7708 64.0208 87.625 62.75C86.4792 61.4792 85.6042 60 85 58.3125C84.3958 56.6042 84.0938 54.7917 84.0938 52.875C84.0938 50.9167 84.4062 49.0625 85.0312 47.3125C85.6562 45.5625 86.5417 44.0417 87.6875 42.75C88.8542 41.4583 90.2396 40.4375 91.8438 39.6875C93.4688 38.9167 95.2812 38.5312 97.2812 38.5312C99.1146 38.5312 100.76 38.8542 102.219 39.5C103.677 40.1458 104.917 41.0521 105.938 42.2188C106.958 43.3646 107.74 44.7396 108.281 46.3438C108.844 47.9479 109.146 49.7083 109.188 51.625H90.3438C90.3229 51.9792 90.3125 52.2188 90.3125 52.3438C90.3125 52.4479 90.3125 52.5104 90.3125 52.5312C90.3125 54.9896 90.4896 56.9896 90.8438 58.5312C91.2188 60.0729 91.7292 61.2812 92.375 62.1562C93.0417 63.0104 93.8229 63.5938 94.7188 63.9062C95.6354 64.2188 96.6458 64.375 97.75 64.375C98.7708 64.375 99.7292 64.2396 100.625 63.9688C101.542 63.6979 102.365 63.2708 103.094 62.6875C103.823 62.0833 104.458 61.3125 105 60.375C105.562 59.4167 106.01 58.2708 106.344 56.9375C106.76 56.9792 107.177 57.0521 107.594 57.1562C108.01 57.2604 108.406 57.3854 108.781 57.5312ZM102.875 49.1875C102.812 47.4583 102.625 46.0625 102.312 45C102.021 43.9167 101.625 43.0729 101.125 42.4688C100.625 41.8646 100.031 41.4583 99.3438 41.25C98.6771 41.0208 97.9375 40.9062 97.125 40.9062C96.2708 40.9062 95.4688 41.0312 94.7188 41.2812C93.9896 41.5312 93.3333 41.9688 92.75 42.5938C92.1667 43.2188 91.6771 44.0625 91.2812 45.125C90.9062 46.1875 90.6458 47.5417 90.5 49.1875H102.875Z" fill="black"/>
<g clip-path="url(#clip1_2_2)">
<path d="M91.5531 87.836C98.1399 87.5533 102.823 92.0934 102.596 97.4287C102.369 102.773 97.2607 107.741 90.6717 108.021L79.5403 108.496C78.8954 108.524 78.2669 108.806 77.7931 109.282C77.3193 109.757 77.039 110.386 77.0139 111.031C76.9888 111.676 77.2209 112.283 77.6592 112.72C78.0975 113.156 78.706 113.386 79.3509 113.359L90.4823 112.884C99.258 112.505 107.091 105.726 107.459 97.2394C107.821 88.7435 100.525 82.6011 91.7424 82.9734L69.4793 83.9282C60.6993 84.3027 52.8658 91.0811 52.5055 99.57C52.48 99.8967 52.5205 100.22 52.6243 100.52C52.7282 100.82 52.8934 101.091 53.11 101.317C53.3267 101.543 53.5904 101.72 53.8854 101.836C54.1803 101.951 54.5006 102.005 54.827 101.992C55.1533 101.979 55.4792 101.901 55.7851 101.762C56.0909 101.622 56.3706 101.425 56.6073 101.181C56.844 100.938 57.033 100.653 57.1629 100.343C57.2928 100.034 57.361 99.7066 57.3634 99.3808C57.593 94.0384 62.6987 89.069 69.2877 88.7885L91.5531 87.836Z" fill="black"/>
<path opacity="0.5" d="M75.4969 98.4276C75.5242 97.7824 75.294 97.1738 74.8571 96.7355C74.4202 96.2973 73.8123 96.0653 73.1672 96.0908C72.5221 96.1162 71.8925 96.3969 71.4171 96.8711C70.9417 97.3453 70.6592 97.9742 70.632 98.6194C70.4046 103.964 65.2991 108.929 58.7077 109.212L36.4425 110.16C29.8557 110.442 25.1725 105.902 25.3995 100.567C25.6291 95.2245 30.7349 90.2551 37.3239 89.9746L48.4553 89.4995C48.7778 89.4915 49.1007 89.4192 49.4052 89.2869C49.7097 89.1546 49.9897 88.965 50.2288 88.7291C50.4679 88.4931 50.6614 88.2156 50.7979 87.9127C50.9344 87.6098 51.0113 87.2876 51.024 86.9649C51.0368 86.6422 50.9851 86.3254 50.872 86.033C50.7589 85.7407 50.5867 85.4786 50.3654 85.2621C50.1442 85.0456 49.8782 84.879 49.5832 84.7721C49.2881 84.6651 48.9698 84.6199 48.6469 84.6392L37.5154 85.1142C28.7376 85.4909 20.9041 92.2694 20.539 100.763C20.1737 109.261 27.4729 115.401 36.253 115.027L58.5183 114.074C67.2915 113.698 75.1274 106.917 75.4921 98.4324L75.4969 98.4276Z" fill="black"/>
</g>
</g>
<defs>
<clipPath id="clip0_2_2">
<rect width="128" height="128" rx="10" fill="white"/>
</clipPath>
<clipPath id="clip1_2_2">
<rect width="74.606" height="80.9575" fill="white" transform="translate(66.2456 44) rotate(45)"/>
</clipPath>
</defs>
</svg>
